<svg xmlns="http://www.w3.org/2000/svg" xmlns:xlink="http://www.w3.org/1999/xlink" width="337" zoomAndPan="magnify" viewBox="0 0 252.75 80.999996" height="108" preserveAspectRatio="xMidYMid meet" version="1.0"><defs><g/><clipPath id="983f17938a"><path d="M 0 17.730469 L 43.453125 17.730469 L 43.453125 66 L 0 66 Z M 0 17.730469 " clip-rule="nonzero"/></clipPath><clipPath id="32e3597d29"><path d="M 9.742188 17.730469 L 33.714844 17.730469 C 36.296875 17.730469 38.773438 18.757812 40.601562 20.585938 C 42.429688 22.410156 43.453125 24.890625 43.453125 27.472656 L 43.453125 56.210938 C 43.453125 58.792969 42.429688 61.273438 40.601562 63.097656 C 38.773438 64.925781 36.296875 65.953125 33.714844 65.953125 L 9.742188 65.953125 C 7.15625 65.953125 4.679688 64.925781 2.851562 63.097656 C 1.027344 61.273438 0 58.792969 0 56.210938 L 0 27.472656 C 0 24.890625 1.027344 22.410156 2.851562 20.585938 C 4.679688 18.757812 7.15625 17.730469 9.742188 17.730469 Z M 9.742188 17.730469 " clip-rule="nonzero"/></clipPath><clipPath id="8bc56b989f"><path d="M 4.144531 24.257812 L 39.3125 24.257812 L 39.3125 59.425781 L 4.144531 59.425781 Z M 4.144531 24.257812 " clip-rule="nonzero"/></clipPath><clipPath id="1b059a796d"><path d="M 21.726562 24.257812 C 12.015625 24.257812 4.144531 32.128906 4.144531 41.839844 C 4.144531 51.554688 12.015625 59.425781 21.726562 59.425781 C 31.4375 59.425781 39.3125 51.554688 39.3125 41.839844 C 39.3125 32.128906 31.4375 24.257812 21.726562 24.257812 Z M 21.726562 24.257812 " clip-rule="nonzero"/></clipPath><linearGradient x1="0.000000488638" gradientTransform="matrix(0.137376, 0, 0, 0.137376, 4.143258, 24.257678)" y1="128" x2="255.999997" gradientUnits="userSpaceOnUse" y2="128" id="81acc6ac12"><stop stop-opacity="1" stop-color="rgb(0%, 0%, 0%)" offset="0"/><stop stop-opacity="1" stop-color="rgb(0.175476%, 0.175476%, 0.175476%)" offset="0.0078125"/><stop stop-opacity="1" stop-color="rgb(0.526428%, 0.526428%, 0.526428%)" offset="0.015625"/><stop stop-opacity="1" stop-color="rgb(0.878906%, 0.878906%, 0.878906%)" offset="0.0234375"/><stop stop-opacity="1" stop-color="rgb(1.231384%, 1.231384%, 1.231384%)" offset="0.03125"/><stop stop-opacity="1" stop-color="rgb(1.583862%, 1.583862%, 1.583862%)" offset="0.0390625"/><stop stop-opacity="1" stop-color="rgb(1.93634%, 1.93634%, 1.93634%)" offset="0.046875"/><stop stop-opacity="1" stop-color="rgb(2.288818%, 2.288818%, 2.288818%)" offset="0.0546875"/><stop stop-opacity="1" stop-color="rgb(2.641296%, 2.641296%, 2.641296%)" offset="0.0625"/><stop stop-opacity="1" stop-color="rgb(2.993774%, 2.993774%, 2.993774%)" offset="0.0703125"/><stop stop-opacity="1" stop-color="rgb(3.346252%, 3.346252%, 3.346252%)" offset="0.078125"/><stop stop-opacity="1" stop-color="rgb(3.69873%, 3.69873%, 3.69873%)" offset="0.0859375"/><stop stop-opacity="1" stop-color="rgb(4.051208%, 4.051208%, 4.051208%)" offset="0.09375"/><stop stop-opacity="1" stop-color="rgb(4.402161%, 4.402161%, 4.402161%)" offset="0.101562"/><stop stop-opacity="1" stop-color="rgb(4.754639%, 4.754639%, 4.754639%)" offset="0.109375"/><stop stop-opacity="1" stop-color="rgb(5.107117%, 5.107117%, 5.107117%)" offset="0.117187"/><stop stop-opacity="1" stop-color="rgb(5.459595%, 5.459595%, 5.459595%)" offset="0.125"/><stop stop-opacity="1" stop-color="rgb(5.812073%, 5.812073%, 5.812073%)" offset="0.132812"/><stop stop-opacity="1" stop-color="rgb(6.164551%, 6.164551%, 6.164551%)" offset="0.140625"/><stop stop-opacity="1" stop-color="rgb(6.517029%, 6.517029%, 6.517029%)" offset="0.148437"/><stop stop-opacity="1" stop-color="rgb(6.869507%, 6.869507%, 6.869507%)" offset="0.15625"/><stop stop-opacity="1" stop-color="rgb(7.221985%, 7.221985%, 7.221985%)" offset="0.164062"/><stop stop-opacity="1" stop-color="rgb(7.574463%, 7.574463%, 7.574463%)" offset="0.171875"/><stop stop-opacity="1" stop-color="rgb(7.926941%, 7.926941%, 7.926941%)" offset="0.179687"/><stop stop-opacity="1" stop-color="rgb(8.277893%, 8.277893%, 8.277893%)" offset="0.1875"/><stop stop-opacity="1" stop-color="rgb(8.630371%, 8.630371%, 8.630371%)" offset="0.195312"/><stop stop-opacity="1" stop-color="rgb(8.982849%, 8.982849%, 8.982849%)" offset="0.203125"/><stop stop-opacity="1" stop-color="rgb(9.335327%, 9.335327%, 9.335327%)" offset="0.210938"/><stop stop-opacity="1" stop-color="rgb(9.687805%, 9.687805%, 9.687805%)" offset="0.21875"/><stop stop-opacity="1" stop-color="rgb(10.040283%, 10.040283%, 10.040283%)" offset="0.226562"/><stop stop-opacity="1" stop-color="rgb(10.392761%, 10.392761%, 10.392761%)" offset="0.234375"/><stop stop-opacity="1" stop-color="rgb(10.745239%, 10.745239%, 10.745239%)" offset="0.242187"/><stop stop-opacity="1" stop-color="rgb(11.097717%, 11.097717%, 11.097717%)" offset="0.25"/><stop stop-opacity="1" stop-color="rgb(11.450195%, 11.450195%, 11.450195%)" offset="0.257812"/><stop stop-opacity="1" stop-color="rgb(11.802673%, 11.802673%, 11.802673%)" offset="0.265625"/><stop stop-opacity="1" stop-color="rgb(12.155151%, 12.155151%, 12.155151%)" offset="0.273438"/><stop stop-opacity="1" stop-color="rgb(12.506104%, 12.506104%, 12.506104%)" offset="0.28125"/><stop stop-opacity="1" stop-color="rgb(12.858582%, 12.858582%, 12.858582%)" offset="0.289062"/><stop stop-opacity="1" stop-color="rgb(13.21106%, 13.21106%, 13.21106%)" offset="0.296875"/><stop stop-opacity="1" stop-color="rgb(13.563538%, 13.563538%, 13.563538%)" offset="0.304688"/><stop stop-opacity="1" stop-color="rgb(13.916016%, 13.916016%, 13.916016%)" offset="0.3125"/><stop stop-opacity="1" stop-color="rgb(14.268494%, 14.268494%, 14.268494%)" offset="0.320312"/><stop stop-opacity="1" stop-color="rgb(14.620972%, 14.620972%, 14.620972%)" offset="0.328125"/><stop stop-opacity="1" stop-color="rgb(14.97345%, 14.97345%, 14.97345%)" offset="0.335937"/><stop stop-opacity="1" stop-color="rgb(15.325928%, 15.325928%, 15.325928%)" offset="0.34375"/><stop stop-opacity="1" stop-color="rgb(15.678406%, 15.678406%, 15.678406%)" offset="0.351562"/><stop stop-opacity="1" stop-color="rgb(16.030884%, 16.030884%, 16.030884%)" offset="0.359375"/><stop stop-opacity="1" stop-color="rgb(16.381836%, 16.381836%, 16.381836%)" offset="0.367187"/><stop stop-opacity="1" stop-color="rgb(16.734314%, 16.734314%, 16.734314%)" offset="0.375"/><stop stop-opacity="1" stop-color="rgb(17.086792%, 17.086792%, 17.086792%)" offset="0.382813"/><stop stop-opacity="1" stop-color="rgb(17.43927%, 17.43927%, 17.43927%)" offset="0.390625"/><stop stop-opacity="1" stop-color="rgb(17.791748%, 17.791748%, 17.791748%)" offset="0.398438"/><stop stop-opacity="1" stop-color="rgb(18.144226%, 18.144226%, 18.144226%)" offset="0.40625"/><stop stop-opacity="1" stop-color="rgb(18.496704%, 18.496704%, 18.496704%)" offset="0.414063"/><stop stop-opacity="1" stop-color="rgb(18.849182%, 18.849182%, 18.849182%)" offset="0.421875"/><stop stop-opacity="1" stop-color="rgb(19.20166%, 19.20166%, 19.20166%)" offset="0.429688"/><stop stop-opacity="1" stop-color="rgb(19.554138%, 19.554138%, 19.554138%)" offset="0.4375"/><stop stop-opacity="1" stop-color="rgb(19.906616%, 19.906616%, 19.906616%)" offset="0.445312"/><stop stop-opacity="1" stop-color="rgb(20.257568%, 20.257568%, 20.257568%)" offset="0.453125"/><stop stop-opacity="1" stop-color="rgb(20.610046%, 20.610046%, 20.610046%)" offset="0.460938"/><stop stop-opacity="1" stop-color="rgb(20.962524%, 20.962524%, 20.962524%)" offset="0.46875"/><stop stop-opacity="1" stop-color="rgb(21.315002%, 21.315002%, 21.315002%)" offset="0.476562"/><stop stop-opacity="1" stop-color="rgb(21.66748%, 21.66748%, 21.66748%)" offset="0.484375"/><stop stop-opacity="1" stop-color="rgb(22.019958%, 22.019958%, 22.019958%)" offset="0.492188"/><stop stop-opacity="1" stop-color="rgb(22.372437%, 22.372437%, 22.372437%)" offset="0.5"/><stop stop-opacity="1" stop-color="rgb(22.724915%, 22.724915%, 22.724915%)" offset="0.507812"/><stop stop-opacity="1" stop-color="rgb(23.077393%, 23.077393%, 23.077393%)" offset="0.515625"/><stop stop-opacity="1" stop-color="rgb(23.429871%, 23.429871%, 23.429871%)" offset="0.523438"/><stop stop-opacity="1" stop-color="rgb(23.782349%, 23.782349%, 23.782349%)" offset="0.53125"/><stop stop-opacity="1" stop-color="rgb(24.134827%, 24.134827%, 24.134827%)" offset="0.539062"/><stop stop-opacity="1" stop-color="rgb(24.485779%, 24.485779%, 24.485779%)" offset="0.546875"/><stop stop-opacity="1" stop-color="rgb(24.838257%, 24.838257%, 24.838257%)" offset="0.554688"/><stop stop-opacity="1" stop-color="rgb(25.190735%, 25.190735%, 25.190735%)" offset="0.5625"/><stop stop-opacity="1" stop-color="rgb(25.543213%, 25.543213%, 25.543213%)" offset="0.570312"/><stop stop-opacity="1" stop-color="rgb(25.895691%, 25.895691%, 25.895691%)" offset="0.578125"/><stop stop-opacity="1" stop-color="rgb(26.248169%, 26.248169%, 26.248169%)" offset="0.585938"/><stop stop-opacity="1" stop-color="rgb(26.600647%, 26.600647%, 26.600647%)" offset="0.59375"/><stop stop-opacity="1" stop-color="rgb(26.953125%, 26.953125%, 26.953125%)" offset="0.601562"/><stop stop-opacity="1" stop-color="rgb(27.305603%, 27.305603%, 27.305603%)" offset="0.609375"/><stop stop-opacity="1" stop-color="rgb(27.658081%, 27.658081%, 27.658081%)" offset="0.617188"/><stop stop-opacity="1" stop-color="rgb(28.010559%, 28.010559%, 28.010559%)" offset="0.625"/><stop stop-opacity="1" stop-color="rgb(28.361511%, 28.361511%, 28.361511%)" offset="0.632812"/><stop stop-opacity="1" stop-color="rgb(28.713989%, 28.713989%, 28.713989%)" offset="0.640625"/><stop stop-opacity="1" stop-color="rgb(29.066467%, 29.066467%, 29.066467%)" offset="0.648437"/><stop stop-opacity="1" stop-color="rgb(29.418945%, 29.418945%, 29.418945%)" offset="0.65625"/><stop stop-opacity="1" stop-color="rgb(29.771423%, 29.771423%, 29.771423%)" offset="0.664062"/><stop stop-opacity="1" stop-color="rgb(30.123901%, 30.123901%, 30.123901%)" offset="0.671875"/><stop stop-opacity="1" stop-color="rgb(30.476379%, 30.476379%, 30.476379%)" offset="0.679687"/><stop stop-opacity="1" stop-color="rgb(30.828857%, 30.828857%, 30.828857%)" offset="0.6875"/><stop stop-opacity="1" stop-color="rgb(31.181335%, 31.181335%, 31.181335%)" offset="0.695312"/><stop stop-opacity="1" stop-color="rgb(31.533813%, 31.533813%, 31.533813%)" offset="0.703125"/><stop stop-opacity="1" stop-color="rgb(31.886292%, 31.886292%, 31.886292%)" offset="0.710937"/><stop stop-opacity="1" stop-color="rgb(32.237244%, 32.237244%, 32.237244%)" offset="0.71875"/><stop stop-opacity="1" stop-color="rgb(32.589722%, 32.589722%, 32.589722%)" offset="0.726562"/><stop stop-opacity="1" stop-color="rgb(32.9422%, 32.9422%, 32.9422%)" offset="0.734375"/><stop stop-opacity="1" stop-color="rgb(33.294678%, 33.294678%, 33.294678%)" offset="0.742188"/><stop stop-opacity="1" stop-color="rgb(33.647156%, 33.647156%, 33.647156%)" offset="0.75"/><stop stop-opacity="1" stop-color="rgb(33.999634%, 33.999634%, 33.999634%)" offset="0.757812"/><stop stop-opacity="1" stop-color="rgb(34.352112%, 34.352112%, 34.352112%)" offset="0.765625"/><stop stop-opacity="1" stop-color="rgb(34.70459%, 34.70459%, 34.70459%)" offset="0.773438"/><stop stop-opacity="1" stop-color="rgb(35.057068%, 35.057068%, 35.057068%)" offset="0.78125"/><stop stop-opacity="1" stop-color="rgb(35.409546%, 35.409546%, 35.409546%)" offset="0.789063"/><stop stop-opacity="1" stop-color="rgb(35.762024%, 35.762024%, 35.762024%)" offset="0.796875"/><stop stop-opacity="1" stop-color="rgb(36.114502%, 36.114502%, 36.114502%)" offset="0.804688"/><stop stop-opacity="1" stop-color="rgb(36.465454%, 36.465454%, 36.465454%)" offset="0.8125"/><stop stop-opacity="1" stop-color="rgb(36.817932%, 36.817932%, 36.817932%)" offset="0.820313"/><stop stop-opacity="1" stop-color="rgb(37.17041%, 37.17041%, 37.17041%)" offset="0.828125"/><stop stop-opacity="1" stop-color="rgb(37.522888%, 37.522888%, 37.522888%)" offset="0.835938"/><stop stop-opacity="1" stop-color="rgb(37.875366%, 37.875366%, 37.875366%)" offset="0.84375"/><stop stop-opacity="1" stop-color="rgb(38.227844%, 38.227844%, 38.227844%)" offset="0.851563"/><stop stop-opacity="1" stop-color="rgb(38.580322%, 38.580322%, 38.580322%)" offset="0.859375"/><stop stop-opacity="1" stop-color="rgb(38.9328%, 38.9328%, 38.9328%)" offset="0.867188"/><stop stop-opacity="1" stop-color="rgb(39.285278%, 39.285278%, 39.285278%)" offset="0.875"/><stop stop-opacity="1" stop-color="rgb(39.637756%, 39.637756%, 39.637756%)" offset="0.882812"/><stop stop-opacity="1" stop-color="rgb(39.990234%, 39.990234%, 39.990234%)" offset="0.890625"/><stop stop-opacity="1" stop-color="rgb(40.341187%, 40.341187%, 40.341187%)" offset="0.898438"/><stop stop-opacity="1" stop-color="rgb(40.693665%, 40.693665%, 40.693665%)" offset="0.90625"/><stop stop-opacity="1" stop-color="rgb(41.046143%, 41.046143%, 41.046143%)" offset="0.914062"/><stop stop-opacity="1" stop-color="rgb(41.398621%, 41.398621%, 41.398621%)" offset="0.921875"/><stop stop-opacity="1" stop-color="rgb(41.751099%, 41.751099%, 41.751099%)" offset="0.929688"/><stop stop-opacity="1" stop-color="rgb(42.103577%, 42.103577%, 42.103577%)" offset="0.9375"/><stop stop-opacity="1" stop-color="rgb(42.456055%, 42.456055%, 42.456055%)" offset="0.945312"/><stop stop-opacity="1" stop-color="rgb(42.808533%, 42.808533%, 42.808533%)" offset="0.953125"/><stop stop-opacity="1" stop-color="rgb(43.161011%, 43.161011%, 43.161011%)" offset="0.960938"/><stop stop-opacity="1" stop-color="rgb(43.513489%, 43.513489%, 43.513489%)" offset="0.96875"/><stop stop-opacity="1" stop-color="rgb(43.865967%, 43.865967%, 43.865967%)" offset="0.976562"/><stop stop-opacity="1" stop-color="rgb(44.216919%, 44.216919%, 44.216919%)" offset="0.984375"/><stop stop-opacity="1" stop-color="rgb(44.569397%, 44.569397%, 44.569397%)" offset="0.992188"/><stop stop-opacity="1" stop-color="rgb(44.921875%, 44.921875%, 44.921875%)" offset="1"/></linearGradient><clipPath id="a82e5f08b4"><path d="M 23.253906 30.742188 L 32.996094 30.742188 L 32.996094 40.484375 L 23.253906 40.484375 Z M 23.253906 30.742188 " clip-rule="nonzero"/></clipPath><clipPath id="40b13901b4"><path d="M 4.144531 24.257812 L 39.3125 24.257812 L 39.3125 59.425781 L 4.144531 59.425781 Z M 4.144531 24.257812 " clip-rule="nonzero"/></clipPath><clipPath id="05aae7db15"><path d="M 21.726562 24.257812 C 12.015625 24.257812 4.144531 32.128906 4.144531 41.839844 C 4.144531 51.554688 12.015625 59.425781 21.726562 59.425781 C 31.4375 59.425781 39.3125 51.554688 39.3125 41.839844 C 39.3125 32.128906 31.4375 24.257812 21.726562 24.257812 Z M 21.726562 24.257812 " clip-rule="nonzero"/></clipPath><clipPath id="60bee9e55a"><path d="M 23.253906 30.742188 L 32.996094 30.742188 L 32.996094 40.484375 L 23.253906 40.484375 Z M 23.253906 30.742188 " clip-rule="nonzero"/></clipPath></defs><g clip-path="url(#983f17938a)"><g clip-path="url(#32e3597d29)"><path fill="#222527" d="M 0 17.730469 L 43.453125 17.730469 L 43.453125 65.9375 L 0 65.9375 Z M 0 17.730469 " fill-opacity="1" fill-rule="nonzero"/></g></g><g clip-path="url(#8bc56b989f)"><g clip-path="url(#1b059a796d)"><path fill="url(#81acc6ac12)" d="M 4.144531 24.257812 L 4.144531 59.425781 L 39.3125 59.425781 L 39.3125 24.257812 Z M 4.144531 24.257812 " fill-rule="nonzero"/></g></g><g fill="#ffffff" fill-opacity="1"><g transform="translate(15.322743, 48.391544)"><g><path d="M 4.5625 0.203125 C 3.800781 0.203125 3.125 0.078125 2.53125 -0.171875 C 1.945312 -0.429688 1.484375 -0.820312 1.140625 -1.34375 C 0.804688 -1.863281 0.640625 -2.519531 0.640625 -3.3125 C 0.640625 -3.96875 0.753906 -4.523438 0.984375 -4.984375 C 1.222656 -5.441406 1.546875 -5.8125 1.953125 -6.09375 C 2.367188 -6.382812 2.84375 -6.601562 3.375 -6.75 C 3.90625 -6.894531 4.472656 -6.992188 5.078125 -7.046875 C 5.753906 -7.109375 6.300781 -7.171875 6.71875 -7.234375 C 7.132812 -7.304688 7.4375 -7.410156 7.625 -7.546875 C 7.8125 -7.679688 7.90625 -7.867188 7.90625 -8.109375 L 7.90625 -8.15625 C 7.90625 -8.550781 7.765625 -8.859375 7.484375 -9.078125 C 7.210938 -9.296875 6.847656 -9.40625 6.390625 -9.40625 C 5.878906 -9.40625 5.472656 -9.296875 5.171875 -9.078125 C 4.867188 -8.859375 4.675781 -8.554688 4.59375 -8.171875 L 1.09375 -8.296875 C 1.195312 -9.023438 1.460938 -9.671875 1.890625 -10.234375 C 2.328125 -10.804688 2.921875 -11.257812 3.671875 -11.59375 C 4.429688 -11.925781 5.347656 -12.09375 6.421875 -12.09375 C 7.179688 -12.09375 7.878906 -12 8.515625 -11.8125 C 9.160156 -11.632812 9.722656 -11.375 10.203125 -11.03125 C 10.679688 -10.695312 11.050781 -10.285156 11.3125 -9.796875 C 11.570312 -9.304688 11.703125 -8.742188 11.703125 -8.109375 L 11.703125 0 L 8.125 0 L 8.125 -1.65625 L 8.03125 -1.65625 C 7.820312 -1.257812 7.550781 -0.921875 7.21875 -0.640625 C 6.894531 -0.359375 6.507812 -0.144531 6.0625 0 C 5.625 0.132812 5.125 0.203125 4.5625 0.203125 Z M 5.734375 -2.28125 C 6.148438 -2.28125 6.519531 -2.363281 6.84375 -2.53125 C 7.175781 -2.695312 7.441406 -2.925781 7.640625 -3.21875 C 7.835938 -3.507812 7.9375 -3.847656 7.9375 -4.234375 L 7.9375 -5.375 C 7.820312 -5.320312 7.6875 -5.269531 7.53125 -5.21875 C 7.382812 -5.175781 7.21875 -5.132812 7.03125 -5.09375 C 6.851562 -5.050781 6.664062 -5.015625 6.46875 -4.984375 C 6.28125 -4.953125 6.097656 -4.921875 5.921875 -4.890625 C 5.566406 -4.835938 5.265625 -4.75 5.015625 -4.625 C 4.765625 -4.507812 4.570312 -4.359375 4.4375 -4.171875 C 4.300781 -3.984375 4.234375 -3.757812 4.234375 -3.5 C 4.234375 -3.101562 4.375 -2.800781 4.65625 -2.59375 C 4.945312 -2.382812 5.304688 -2.28125 5.734375 -2.28125 Z M 5.734375 -2.28125 "/></g></g></g><g clip-path="url(#a82e5f08b4)"><path fill="#ffffff" d="M 33.007812 35.617188 C 29.351562 36.292969 28.804688 36.839844 28.132812 40.496094 C 27.457031 36.839844 26.914062 36.292969 23.253906 35.617188 C 26.914062 34.945312 27.457031 34.398438 28.132812 30.742188 C 28.804688 34.398438 29.351562 34.945312 33.007812 35.617188 Z M 33.007812 35.617188 " fill-opacity="1" fill-rule="nonzero"/></g><g clip-path="url(#40b13901b4)"><g clip-path="url(#05aae7db15)"><path fill="#ffffff" d="M 4.144531 24.257812 L 39.3125 24.257812 L 39.3125 59.425781 L 4.144531 59.425781 Z M 4.144531 24.257812 " fill-opacity="1" fill-rule="nonzero"/></g></g><g fill="#222527" fill-opacity="1"><g transform="translate(15.322743, 48.391544)"><g><path d="M 4.5625 0.203125 C 3.800781 0.203125 3.125 0.078125 2.53125 -0.171875 C 1.945312 -0.429688 1.484375 -0.820312 1.140625 -1.34375 C 0.804688 -1.863281 0.640625 -2.519531 0.640625 -3.3125 C 0.640625 -3.96875 0.753906 -4.523438 0.984375 -4.984375 C 1.222656 -5.441406 1.546875 -5.8125 1.953125 -6.09375 C 2.367188 -6.382812 2.84375 -6.601562 3.375 -6.75 C 3.90625 -6.894531 4.472656 -6.992188 5.078125 -7.046875 C 5.753906 -7.109375 6.300781 -7.171875 6.71875 -7.234375 C 7.132812 -7.304688 7.4375 -7.410156 7.625 -7.546875 C 7.8125 -7.679688 7.90625 -7.867188 7.90625 -8.109375 L 7.90625 -8.15625 C 7.90625 -8.550781 7.765625 -8.859375 7.484375 -9.078125 C 7.210938 -9.296875 6.847656 -9.40625 6.390625 -9.40625 C 5.878906 -9.40625 5.472656 -9.296875 5.171875 -9.078125 C 4.867188 -8.859375 4.675781 -8.554688 4.59375 -8.171875 L 1.09375 -8.296875 C 1.195312 -9.023438 1.460938 -9.671875 1.890625 -10.234375 C 2.328125 -10.804688 2.921875 -11.257812 3.671875 -11.59375 C 4.429688 -11.925781 5.347656 -12.09375 6.421875 -12.09375 C 7.179688 -12.09375 7.878906 -12 8.515625 -11.8125 C 9.160156 -11.632812 9.722656 -11.375 10.203125 -11.03125 C 10.679688 -10.695312 11.050781 -10.285156 11.3125 -9.796875 C 11.570312 -9.304688 11.703125 -8.742188 11.703125 -8.109375 L 11.703125 0 L 8.125 0 L 8.125 -1.65625 L 8.03125 -1.65625 C 7.820312 -1.257812 7.550781 -0.921875 7.21875 -0.640625 C 6.894531 -0.359375 6.507812 -0.144531 6.0625 0 C 5.625 0.132812 5.125 0.203125 4.5625 0.203125 Z M 5.734375 -2.28125 C 6.148438 -2.28125 6.519531 -2.363281 6.84375 -2.53125 C 7.175781 -2.695312 7.441406 -2.925781 7.640625 -3.21875 C 7.835938 -3.507812 7.9375 -3.847656 7.9375 -4.234375 L 7.9375 -5.375 C 7.820312 -5.320312 7.6875 -5.269531 7.53125 -5.21875 C 7.382812 -5.175781 7.21875 -5.132812 7.03125 -5.09375 C 6.851562 -5.050781 6.664062 -5.015625 6.46875 -4.984375 C 6.28125 -4.953125 6.097656 -4.921875 5.921875 -4.890625 C 5.566406 -4.835938 5.265625 -4.75 5.015625 -4.625 C 4.765625 -4.507812 4.570312 -4.359375 4.4375 -4.171875 C 4.300781 -3.984375 4.234375 -3.757812 4.234375 -3.5 C 4.234375 -3.101562 4.375 -2.800781 4.65625 -2.59375 C 4.945312 -2.382812 5.304688 -2.28125 5.734375 -2.28125 Z M 5.734375 -2.28125 "/></g></g></g><g clip-path="url(#60bee9e55a)"><path fill="#222527" d="M 33.007812 35.617188 C 29.351562 36.292969 28.804688 36.839844 28.132812 40.496094 C 27.457031 36.839844 26.914062 36.292969 23.253906 35.617188 C 26.914062 34.945312 27.457031 34.398438 28.132812 30.742188 C 28.804688 34.398438 29.351562 34.945312 33.007812 35.617188 Z M 33.007812 35.617188 " fill-opacity="1" fill-rule="nonzero"/></g><g fill="#222527" fill-opacity="1"><g transform="translate(47.012078, 55.588027)"><g><path d="M 9.484375 0.46875 C 8.015625 0.46875 6.691406 0.203125 5.515625 -0.328125 C 4.347656 -0.859375 3.421875 -1.640625 2.734375 -2.671875 C 2.054688 -3.710938 1.71875 -4.992188 1.71875 -6.515625 C 1.71875 -7.816406 1.957031 -8.894531 2.4375 -9.75 C 2.925781 -10.613281 3.585938 -11.300781 4.421875 -11.8125 C 5.265625 -12.320312 6.210938 -12.710938 7.265625 -12.984375 C 8.316406 -13.253906 9.40625 -13.445312 10.53125 -13.5625 C 11.894531 -13.707031 13 -13.835938 13.84375 -13.953125 C 14.6875 -14.066406 15.300781 -14.25 15.6875 -14.5 C 16.070312 -14.75 16.265625 -15.132812 16.265625 -15.65625 L 16.265625 -15.75 C 16.265625 -16.882812 15.925781 -17.765625 15.25 -18.390625 C 14.582031 -19.015625 13.613281 -19.328125 12.34375 -19.328125 C 11 -19.328125 9.9375 -19.035156 9.15625 -18.453125 C 8.382812 -17.867188 7.859375 -17.175781 7.578125 -16.375 L 2.484375 -17.109375 C 2.878906 -18.515625 3.539062 -19.691406 4.46875 -20.640625 C 5.394531 -21.597656 6.523438 -22.316406 7.859375 -22.796875 C 9.203125 -23.273438 10.6875 -23.515625 12.3125 -23.515625 C 13.425781 -23.515625 14.535156 -23.378906 15.640625 -23.109375 C 16.753906 -22.847656 17.769531 -22.414062 18.6875 -21.8125 C 19.601562 -21.21875 20.335938 -20.40625 20.890625 -19.375 C 21.453125 -18.351562 21.734375 -17.070312 21.734375 -15.53125 L 21.734375 0 L 16.484375 0 L 16.484375 -3.1875 L 16.296875 -3.1875 C 15.960938 -2.539062 15.492188 -1.9375 14.890625 -1.375 C 14.296875 -0.820312 13.546875 -0.375 12.640625 -0.03125 C 11.742188 0.300781 10.691406 0.46875 9.484375 0.46875 Z M 10.90625 -3.546875 C 12.007812 -3.546875 12.960938 -3.765625 13.765625 -4.203125 C 14.566406 -4.640625 15.1875 -5.222656 15.625 -5.953125 C 16.0625 -6.679688 16.28125 -7.472656 16.28125 -8.328125 L 16.28125 -11.0625 C 16.113281 -10.914062 15.828125 -10.78125 15.421875 -10.65625 C 15.015625 -10.539062 14.554688 -10.4375 14.046875 -10.34375 C 13.546875 -10.257812 13.046875 -10.179688 12.546875 -10.109375 C 12.054688 -10.035156 11.628906 -9.972656 11.265625 -9.921875 C 10.453125 -9.816406 9.722656 -9.632812 9.078125 -9.375 C 8.429688 -9.125 7.921875 -8.773438 7.546875 -8.328125 C 7.179688 -7.878906 7 -7.304688 7 -6.609375 C 7 -5.597656 7.363281 -4.832031 8.09375 -4.3125 C 8.832031 -3.800781 9.769531 -3.546875 10.90625 -3.546875 Z M 10.90625 -3.546875 "/></g></g></g><g fill="#222527" fill-opacity="1"><g transform="translate(71.45288, 55.588027)"><g><path d="M 14.5625 -23.203125 L 14.5625 -18.984375 L 0.84375 -18.984375 L 0.84375 -23.203125 Z M 4.28125 0 L 4.28125 -25.390625 C 4.28125 -26.953125 4.601562 -28.253906 5.25 -29.296875 C 5.894531 -30.335938 6.765625 -31.113281 7.859375 -31.625 C 8.960938 -32.132812 10.1875 -32.390625 11.53125 -32.390625 C 12.476562 -32.390625 13.316406 -32.3125 14.046875 -32.15625 C 14.785156 -32.007812 15.332031 -31.878906 15.6875 -31.765625 L 14.59375 -27.53125 C 14.363281 -27.601562 14.070312 -27.675781 13.71875 -27.75 C 13.363281 -27.820312 12.972656 -27.859375 12.546875 -27.859375 C 11.523438 -27.859375 10.804688 -27.613281 10.390625 -27.125 C 9.972656 -26.632812 9.765625 -25.9375 9.765625 -25.03125 L 9.765625 0 Z M 4.28125 0 "/></g></g></g><g fill="#222527" fill-opacity="1"><g transform="translate(87.494988, 55.588027)"><g><path d="M 14.5625 -23.203125 L 14.5625 -18.984375 L 0.84375 -18.984375 L 0.84375 -23.203125 Z M 4.28125 0 L 4.28125 -25.390625 C 4.28125 -26.953125 4.601562 -28.253906 5.25 -29.296875 C 5.894531 -30.335938 6.765625 -31.113281 7.859375 -31.625 C 8.960938 -32.132812 10.1875 -32.390625 11.53125 -32.390625 C 12.476562 -32.390625 13.316406 -32.3125 14.046875 -32.15625 C 14.785156 -32.007812 15.332031 -31.878906 15.6875 -31.765625 L 14.59375 -27.53125 C 14.363281 -27.601562 14.070312 -27.675781 13.71875 -27.75 C 13.363281 -27.820312 12.972656 -27.859375 12.546875 -27.859375 C 11.523438 -27.859375 10.804688 -27.613281 10.390625 -27.125 C 9.972656 -26.632812 9.765625 -25.9375 9.765625 -25.03125 L 9.765625 0 Z M 4.28125 0 "/></g></g></g><g fill="#222527" fill-opacity="1"><g transform="translate(103.537097, 55.588027)"><g><path d="M 12.9375 0.453125 C 10.664062 0.453125 8.695312 -0.0390625 7.03125 -1.03125 C 5.375 -2.03125 4.085938 -3.425781 3.171875 -5.21875 C 2.265625 -7.019531 1.8125 -9.117188 1.8125 -11.515625 C 1.8125 -13.910156 2.265625 -16.007812 3.171875 -17.8125 C 4.085938 -19.613281 5.375 -21.015625 7.03125 -22.015625 C 8.695312 -23.015625 10.664062 -23.515625 12.9375 -23.515625 C 15.195312 -23.515625 17.15625 -23.015625 18.8125 -22.015625 C 20.476562 -21.015625 21.765625 -19.613281 22.671875 -17.8125 C 23.585938 -16.007812 24.046875 -13.910156 24.046875 -11.515625 C 24.046875 -9.117188 23.585938 -7.019531 22.671875 -5.21875 C 21.765625 -3.425781 20.476562 -2.03125 18.8125 -1.03125 C 17.15625 -0.0390625 15.195312 0.453125 12.9375 0.453125 Z M 12.96875 -3.921875 C 14.195312 -3.921875 15.222656 -4.257812 16.046875 -4.9375 C 16.867188 -5.625 17.484375 -6.539062 17.890625 -7.6875 C 18.304688 -8.832031 18.515625 -10.113281 18.515625 -11.53125 C 18.515625 -12.945312 18.304688 -14.234375 17.890625 -15.390625 C 17.484375 -16.546875 16.867188 -17.460938 16.046875 -18.140625 C 15.222656 -18.828125 14.195312 -19.171875 12.96875 -19.171875 C 11.707031 -19.171875 10.660156 -18.828125 9.828125 -18.140625 C 8.992188 -17.460938 8.375 -16.546875 7.96875 -15.390625 C 7.5625 -14.234375 7.359375 -12.945312 7.359375 -11.53125 C 7.359375 -10.113281 7.5625 -8.832031 7.96875 -7.6875 C 8.375 -6.539062 8.992188 -5.625 9.828125 -4.9375 C 10.660156 -4.257812 11.707031 -3.921875 12.96875 -3.921875 Z M 12.96875 -3.921875 "/></g></g></g><g fill="#222527" fill-opacity="1"><g transform="translate(129.397821, 55.588027)"><g><path d="M 2.8125 0 L 2.8125 -23.203125 L 8.109375 -23.203125 L 8.109375 -19.34375 L 8.359375 -19.34375 C 8.773438 -20.675781 9.5 -21.707031 10.53125 -22.4375 C 11.570312 -23.175781 12.753906 -23.546875 14.078125 -23.546875 C 14.378906 -23.546875 14.71875 -23.53125 15.09375 -23.5 C 15.476562 -23.476562 15.796875 -23.441406 16.046875 -23.390625 L 16.046875 -18.359375 C 15.816406 -18.441406 15.453125 -18.515625 14.953125 -18.578125 C 14.453125 -18.640625 13.96875 -18.671875 13.5 -18.671875 C 12.507812 -18.671875 11.617188 -18.457031 10.828125 -18.03125 C 10.035156 -17.601562 9.410156 -17.007812 8.953125 -16.25 C 8.503906 -15.5 8.28125 -14.628906 8.28125 -13.640625 L 8.28125 0 Z M 2.8125 0 "/></g></g></g><g fill="#222527" fill-opacity="1"><g transform="translate(146.270736, 55.588027)"><g><path d="M 11.421875 0.40625 C 9.597656 0.40625 7.960938 -0.0625 6.515625 -1 C 5.078125 -1.9375 3.941406 -3.296875 3.109375 -5.078125 C 2.273438 -6.859375 1.859375 -9.023438 1.859375 -11.578125 C 1.859375 -14.148438 2.28125 -16.328125 3.125 -18.109375 C 3.976562 -19.890625 5.128906 -21.234375 6.578125 -22.140625 C 8.035156 -23.054688 9.65625 -23.515625 11.4375 -23.515625 C 12.800781 -23.515625 13.921875 -23.285156 14.796875 -22.828125 C 15.671875 -22.367188 16.363281 -21.816406 16.875 -21.171875 C 17.382812 -20.535156 17.785156 -19.9375 18.078125 -19.375 L 18.296875 -19.375 L 18.296875 -30.9375 L 23.78125 -30.9375 L 23.78125 0 L 18.40625 0 L 18.40625 -3.65625 L 18.078125 -3.65625 C 17.785156 -3.09375 17.375 -2.492188 16.84375 -1.859375 C 16.3125 -1.234375 15.609375 -0.695312 14.734375 -0.25 C 13.859375 0.1875 12.753906 0.40625 11.421875 0.40625 Z M 12.953125 -4.078125 C 14.109375 -4.078125 15.09375 -4.390625 15.90625 -5.015625 C 16.726562 -5.648438 17.347656 -6.53125 17.765625 -7.65625 C 18.191406 -8.789062 18.40625 -10.109375 18.40625 -11.609375 C 18.40625 -13.109375 18.195312 -14.410156 17.78125 -15.515625 C 17.363281 -16.617188 16.75 -17.476562 15.9375 -18.09375 C 15.125 -18.707031 14.128906 -19.015625 12.953125 -19.015625 C 11.734375 -19.015625 10.710938 -18.695312 9.890625 -18.0625 C 9.078125 -17.4375 8.460938 -16.5625 8.046875 -15.4375 C 7.640625 -14.320312 7.4375 -13.046875 7.4375 -11.609375 C 7.4375 -10.148438 7.644531 -8.851562 8.0625 -7.71875 C 8.476562 -6.59375 9.097656 -5.703125 9.921875 -5.046875 C 10.742188 -4.398438 11.753906 -4.078125 12.953125 -4.078125 Z M 12.953125 -4.078125 "/></g></g></g><g fill="#26bf4d" fill-opacity="1"><g transform="translate(173.083442, 55.588027)"><g><path d="M 2.34375 0 L 2.34375 -30.9375 L 15.125 -30.9375 C 17.4375 -30.9375 19.4375 -30.484375 21.125 -29.578125 C 22.8125 -28.679688 24.113281 -27.429688 25.03125 -25.828125 C 25.945312 -24.222656 26.40625 -22.359375 26.40625 -20.234375 C 26.40625 -18.097656 25.9375 -16.226562 25 -14.625 C 24.070312 -13.03125 22.75 -11.796875 21.03125 -10.921875 C 19.3125 -10.046875 17.265625 -9.609375 14.890625 -9.609375 L 7.015625 -9.609375 L 7.015625 -15.5 L 13.5 -15.5 C 14.632812 -15.5 15.582031 -15.695312 16.34375 -16.09375 C 17.101562 -16.488281 17.675781 -17.039062 18.0625 -17.75 C 18.457031 -18.457031 18.65625 -19.285156 18.65625 -20.234375 C 18.65625 -21.191406 18.457031 -22.019531 18.0625 -22.71875 C 17.675781 -23.414062 17.097656 -23.957031 16.328125 -24.34375 C 15.566406 -24.726562 14.625 -24.921875 13.5 -24.921875 L 9.828125 -24.921875 L 9.828125 0 Z M 2.34375 0 "/></g></g></g><g fill="#26bf4d" fill-opacity="1"><g transform="translate(200.817256, 55.588027)"><g><path d="M 2.34375 0 L 2.34375 -23.203125 L 9.734375 -23.203125 L 9.734375 0 Z M 6.046875 -25.90625 C 5.003906 -25.90625 4.109375 -26.25 3.359375 -26.9375 C 2.617188 -27.632812 2.25 -28.472656 2.25 -29.453125 C 2.25 -30.410156 2.617188 -31.234375 3.359375 -31.921875 C 4.109375 -32.617188 5.003906 -32.96875 6.046875 -32.96875 C 7.085938 -32.96875 7.976562 -32.617188 8.71875 -31.921875 C 9.46875 -31.234375 9.84375 -30.410156 9.84375 -29.453125 C 9.84375 -28.472656 9.46875 -27.632812 8.71875 -26.9375 C 7.976562 -26.25 7.085938 -25.90625 6.046875 -25.90625 Z M 6.046875 -25.90625 "/></g></g></g><g fill="#26bf4d" fill-opacity="1"><g transform="translate(212.886601, 55.588027)"><g><path d="M 9.734375 -30.9375 L 9.734375 0 L 2.34375 0 L 2.34375 -30.9375 Z M 9.734375 -30.9375 "/></g></g></g><g fill="#26bf4d" fill-opacity="1"><g transform="translate(224.955946, 55.588027)"><g><path d="M 9.734375 -30.9375 L 9.734375 0 L 2.34375 0 L 2.34375 -30.9375 Z M 9.734375 -30.9375 "/></g></g></g></svg>